<?xml version="1.0" encoding="utf-8"?>
<svg xmlns="http://www.w3.org/2000/svg" viewBox="-143.9249 -224.7299 1351.786 366.5226" width="1351.786px" height="366.5226px">
  <path fill="#95B1A1" opacity="1.000000" stroke="none" d="M -132.06 21.966 C -148.98 -23.431 -147.63 -68.175 -129.12 -112.26 C -111.31 -154.67 -81.476 -186.37 -40.09 -206.33 C 5.258 -228.2 52.042 -230.66 99.556 -213.25 C 108.653 -209.92 112.738 -200.68 109.321 -191.69 C 106.282 -183.69 97.043 -179.58 88.769 -182.56 C 12.175 -210.09 -72.326 -171.8 -100.76 -95.532 C -121.87 -38.934 -111.91 13.15 -72.419 58.714 C -46.408 88.728 -12.666 104.743 27.036 107.964 C 102.696 114.102 171.947 61.569 185.78 -16.327 C 189.738 -38.61 188.592 -60.77 182.202 -82.554 C 180.599 -88.017 179.964 -93.372 183.011 -98.492 C 186.634 -104.59 192.188 -107.06 199.107 -106.17 C 205.703 -105.33 210.198 -101.4 212.057 -95.192 C 225.141 -51.527 223.105 -8.516 204.187 32.988 C 181.678 82.372 144.628 116.738 92.607 132.874 C 31.358 151.871 -24.981 140.223 -75.281 100.77 C -101.54 80.172 -120.14 53.595 -132.06 21.966 Z" style="stroke-width: 1;"/>
  <path fill="#30544F" opacity="1.000000" stroke="none" d="M 128.059 -110.44 C 138.283 -103.62 139.583 -92.812 131.27 -84.362 C 97.161 -49.674 63.001 -15.038 28.816 19.574 C 22.304 26.167 11.534 26.469 4.885 19.934 C -9.136 6.156 -22.991 -7.795 -36.739 -21.846 C -42.998 -28.243 -42.677 -38.74 -36.481 -44.896 C -30.069 -51.266 -19.498 -51.581 -13.003 -45.202 C -2.916 -35.295 6.929 -25.142 17.487 -14.477 C 22.415 -19.618 26.936 -24.447 31.577 -29.157 C 56.949 -54.912 82.356 -80.632 107.738 -106.38 C 113.597 -112.32 119.916 -113.7 128.059 -110.44 Z" style="stroke-width: 1;"/>
  <path fill="#30544F" opacity="1.000000" stroke="none" d="M 605.187 -64.657 C 620.351 -84.144 639.842 -91.434 663.361 -86.714 C 684.11 -82.564 696.628 -68.907 702.726 -49.187 C 704.294 -44.116 704.789 -38.595 705.001 -33.25 C 705.315 -25.276 702.035 -22.202 693.964 -22.177 C 669.198 -22.102 644.431 -22.102 619.664 -22.063 C 618.453 -22.06 617.244 -21.954 616.05 -21.898 C 615.688 -5.988 630.995 8.947 649.011 10.375 C 659.917 11.24 669.861 8.807 678.64 1.892 C 684.933 -3.065 691.113 -2.741 694.789 2.22 C 698.423 7.125 696.675 13.117 690.255 17.757 C 666.422 34.979 632.921 33.411 612.155 14.1 C 591.499 -5.109 588.449 -38.012 605.187 -64.657 M 619.568 -50.863 C 618.192 -47.338 616.817 -43.813 615.306 -39.943 C 638.929 -39.943 661.554 -39.943 684.495 -39.943 C 683.058 -50.198 678.767 -58.049 670.326 -63.371 C 653.533 -73.962 631.948 -68.998 619.568 -50.863 Z" style="stroke-width: 1;"/>
  <path fill="#30554F" opacity="1.000000" stroke="none" d="M 562.467 22.138 C 560.921 28.541 556.12 30.003 550.642 28.986 C 545.046 27.946 542.764 23.789 542.808 18.145 C 542.896 0.481 543.147 -17.187 542.838 -34.846 C 542.499 -55.119 530.969 -67.763 513.15 -68.135 C 493.285 -68.55 480.886 -56.715 480.562 -36.541 C 480.268 -18.88 480.474 -1.214 480.371 16.451 C 480.312 25.134 476.778 29.363 469.856 29.37 C 463.259 29.378 459.858 24.816 459.858 15.97 C 459.843 -30.153 459.828 -76.276 459.813 -122.4 C 459.813 -124.35 459.622 -126.38 460.079 -128.25 C 461.463 -134.06 465.277 -137.14 471.285 -136.54 C 476.881 -135.96 480.312 -132.71 480.371 -126.87 C 480.489 -114.11 480.43 -101.36 480.444 -88.604 C 480.444 -84.224 480.444 -79.844 480.444 -73.967 C 499.529 -90.884 519.556 -92.234 540.261 -81.394 C 555.62 -73.363 561.451 -59.007 562.335 -41.455 C 561.584 -20.166 561.422 0.082 561.318 20.33 C 561.318 20.931 562.069 21.536 562.467 22.138 Z" style="stroke-width: 1;"/>
  <path opacity="1.000000" stroke="none" d="M 942.755 -62.946 C 931.56 -53.053 920.762 -43.5 909.645 -33.666 C 923.261 -18.848 936.473 -4.417 949.75 9.953 C 955.818 16.522 956.563 21.997 951.794 26.524 C 946.841 31.224 940.711 30.188 934.697 23.652 C 921.111 8.89 907.516 -5.866 893.982 -20.563 C 887.654 -16.717 884.541 -12.083 885.171 -4.708 C 885.838 3.083 885.316 10.976 885.317 18.825 C 885.318 25.382 881.852 28.896 875.513 29.336 C 869.41 29.76 864.939 25.483 864.923 18.756 C 864.816 -29.321 864.822 -77.396 864.926 -125.47 C 864.941 -132.62 869.462 -136.95 875.758 -136.7 C 881.82 -136.48 885.29 -132.46 885.308 -125.19 C 885.37 -99.69 885.335 -74.18 885.335 -48.671 C 885.335 -45.786 885.335 -42.901 885.335 -38.572 C 887.951 -40.507 889.477 -41.439 890.771 -42.624 C 905.242 -55.873 919.702 -69.137 934.115 -82.454 C 940.904 -88.714 946.775 -89.514 951.377 -84.614 C 956.029 -79.664 954.87 -73.659 948.109 -67.677 C 946.456 -66.213 944.803 -64.75 942.755 -62.946 Z" style="stroke-width: 1; fill: rgb(48, 84, 79);"/>
  <path fill="#315651" opacity="1.000000" stroke="none" d="M 326.663 -41.178 C 336.176 -88.694 387.701 -99.06 417.477 -76.975 C 419.818 -75.233 422.071 -73.272 424.059 -71.132 C 428.227 -66.646 428.344 -61.719 424.089 -57.385 C 419.818 -53.032 414.811 -53.057 410.394 -57.306 C 402.766 -64.658 393.812 -68.334 383.21 -68.238 C 367.439 -68.097 354.215 -59.264 348.855 -45.135 C 342.434 -28.174 346.852 -9.198 359.825 1.971 C 370.987 11.577 388.379 13.282 401.867 5.922 C 404.857 4.291 407.611 2.178 410.364 0.148 C 415.518 -3.652 420.393 -3.557 424.678 1.335 C 428.477 5.66 427.785 11.19 422.616 15.507 C 404.636 30.532 384.123 33.268 362.535 25.863 C 335.808 16.691 321.553 -10.459 326.663 -41.178 Z" style="stroke-width: 1;"/>
  <path fill="#30544F" opacity="1.000000" stroke="none" d="M 793.072 10.294 C 800.756 7.074 808.12 4.456 814.76 0.593 C 821.211 -3.162 826.501 -3.348 830.26 1.777 C 833.668 6.42 832.606 12.095 826.898 16.429 C 806.921 31.597 785.084 34.237 762.623 23.431 C 740.468 12.773 730.926 -6.412 731.214 -30.446 C 731.488 -53.381 741.315 -71.596 762.078 -81.804 C 782.968 -92.074 803.883 -90.514 823.265 -76.723 C 824.856 -75.591 826.35 -74.295 827.758 -72.94 C 833.319 -67.589 834.046 -62.103 829.871 -57.565 C 825.704 -53.037 820.25 -53.321 814.428 -58.416 C 802.377 -68.966 788.779 -71.254 774.075 -65.277 C 756.839 -58.272 748.133 -39.246 752.58 -19.381 C 756.82 -0.442 771.687 10.649 793.072 10.294 Z" style="stroke-width: 1;"/>
  <path opacity="1.000000" stroke="none" d="M 1203.32 -84.434 C 1207.52 -80.744 1209.34 -76.17 1206.24 -72.379 C 1203.84 -69.447 1199.33 -67.408 1195.45 -66.73 C 1190.05 -65.791 1184.37 -66.495 1177.95 -66.495 C 1177.95 -52.803 1177.96 -40.128 1177.95 -27.454 C 1177.95 -21.326 1177.93 -15.199 1177.95 -9.073 C 1178 3.347 1183.4 8.792 1195.82 9.003 C 1204.66 9.152 1208.48 12.618 1207.78 19.847 C 1207.18 26.085 1203.22 28.681 1197.49 29.314 C 1174.21 31.878 1157.85 17.735 1157.4 -5.767 C 1157.04 -25.12 1157.17 -44.483 1157.06 -63.841 C 1157.06 -64.295 1156.77 -64.747 1156.39 -65.845 C 1149.19 -67.512 1137.2 -63.934 1137.31 -76.636 C 1137.41 -88.904 1148.94 -85.604 1157.29 -87.344 C 1157.29 -94.804 1157.23 -102.09 1157.31 -109.37 C 1157.39 -116.9 1161.56 -121.78 1167.78 -121.82 C 1174.06 -121.86 1177.93 -117.09 1177.95 -109.3 C 1177.96 -102.22 1177.95 -95.144 1177.95 -87.804 C 1186.65 -86.754 1194.75 -85.764 1203.32 -84.434 Z" style="stroke-width: 1; fill: rgb(48, 84, 79);"/>
  <path fill="#91BED3" opacity="1.000000" stroke="none" d="M 184.045 -148.51 C 175.445 -131.02 155.186 -127.83 142.746 -141.95 C 136.022 -149.58 135.539 -158.73 139.574 -167.7 C 143.297 -175.98 149.881 -180.53 159.38 -181.45 C 177.595 -183.22 190.507 -164.55 184.045 -148.51 Z" style="stroke-width: 1;"/>
  <path opacity="1.000000" stroke="none" d="M 1109.74 -82.784 C 1110.51 -79.164 1111.4 -76.046 1111.41 -72.925 C 1111.52 -43.502 1111.48 -14.08 1111.46 15.344 C 1111.45 24.495 1107.92 29.216 1101.09 29.41 C 1094.12 29.607 1090.01 24.386 1090 15.213 C 1089.97 -14.701 1089.76 -44.617 1090.19 -74.523 C 1090.25 -78.504 1092.64 -83.794 1095.73 -86.064 C 1100.1 -89.284 1105.59 -87.924 1109.74 -82.784 Z" style="stroke-width: 1; fill: rgb(48, 84, 79);"/>
  <path opacity="1.000000" stroke="none" d="M 1023.41 -46.968 C 1030.28 -46.974 1036.41 -47.161 1042.53 -46.937 C 1049.75 -46.674 1052.98 -43.296 1053.01 -36.553 C 1053.03 -29.596 1050.08 -26.558 1042.61 -26.34 C 1026.55 -25.874 1010.49 -25.46 994.435 -25.211 C 988.328 -25.115 983.69 -29.897 983.618 -35.781 C 983.542 -41.962 987.9 -46.674 994.743 -46.899 C 1004.04 -47.205 1013.36 -46.971 1023.41 -46.968 Z" style="stroke-width: 1; fill: rgb(145, 190, 211);"/>
  <path opacity="1.000000" stroke="none" d="M 1112.84 -113.07 C 1108.87 -106.67 1104.01 -103.1 1096.73 -105.49 C 1091 -107.36 1088.13 -111.53 1088.08 -117.63 C 1088.02 -125.84 1093.1 -131.22 1101 -131.18 C 1108.49 -131.15 1113.31 -126.07 1113.45 -117.98 C 1113.48 -116.53 1113.2 -115.08 1112.84 -113.07 Z" style="stroke-width: 1; fill: rgb(48, 84, 79);"/>
  <path fill="#143C36" opacity="1.000000" stroke="none" d="M 562.673 21.48 C 562.069 21.536 561.318 20.931 561.318 20.33 C 561.422 0.082 561.584 -20.166 562.217 -40.831 C 562.762 -20.558 562.835 0.132 562.673 21.48 Z" style="stroke-width: 1;"/>
</svg>