<?xml version="1.0" encoding="utf-8"?>
<svg xmlns="http://www.w3.org/2000/svg" viewBox="-255.9279 -234.0599 599.1024 513.8571" width="599.1024px" height="513.8571px">
  <path fill="#95B1A1" opacity="1.000000" stroke="none" d="M -127.24 12.638 C -144.16 -32.759 -142.81 -77.503 -124.3 -121.59 C -106.49 -164 -76.659 -195.7 -35.273 -215.66 C 10.075 -237.53 56.859 -239.99 104.373 -222.58 C 113.47 -219.25 117.555 -210.01 114.138 -201.02 C 111.099 -193.02 101.86 -188.91 93.586 -191.89 C 16.992 -219.42 -67.509 -181.13 -95.946 -104.86 C -117.05 -48.262 -107.09 3.822 -67.602 49.386 C -41.591 79.4 -7.849 95.415 31.853 98.636 C 107.513 104.774 176.764 52.241 190.597 -25.655 C 194.555 -47.938 193.409 -70.098 187.019 -91.882 C 185.416 -97.345 184.781 -102.7 187.828 -107.82 C 191.451 -113.92 197.005 -116.39 203.924 -115.5 C 210.52 -114.66 215.015 -110.73 216.874 -104.52 C 229.958 -60.855 227.922 -17.844 209.004 23.66 C 186.495 73.044 149.445 107.41 97.424 123.546 C 36.175 142.543 -20.164 130.895 -70.464 91.442 C -96.725 70.844 -115.32 44.267 -127.24 12.638 Z" style="stroke-width: 1;" transform="matrix(1, 0, 0, 1, 2.2737367544323206e-13, 2.2737367544323206e-13)"/>
  <path fill="#30544F" opacity="1.000000" stroke="none" d="M 132.876 -119.77 C 143.1 -112.95 144.4 -102.14 136.087 -93.69 C 101.978 -59.002 67.818 -24.366 33.633 10.246 C 27.121 16.839 16.351 17.141 9.702 10.606 C -4.319 -3.172 -18.174 -17.123 -31.922 -31.174 C -38.181 -37.571 -37.86 -48.068 -31.664 -54.224 C -25.252 -60.594 -14.681 -60.909 -8.186 -54.53 C 1.901 -44.623 11.746 -34.47 22.304 -23.805 C 27.232 -28.946 31.753 -33.775 36.394 -38.485 C 61.766 -64.24 87.173 -89.96 112.555 -115.71 C 118.414 -121.65 124.733 -123.03 132.876 -119.77 Z" style="stroke-width: 1;" transform="matrix(1, 0, 0, 1, 2.2737367544323206e-13, 2.2737367544323206e-13)"/>
  <path fill="#30544F" opacity="1.000000" stroke="none" d="M -66.093 215.514 C -55.795 202.282 -42.559 197.333 -26.588 200.532 C -12.498 203.355 -3.997 212.628 0.144 226.019 C 1.209 229.463 1.545 233.212 1.689 236.842 C 1.902 242.257 -0.325 244.344 -5.806 244.361 C -22.624 244.412 -39.443 244.412 -56.262 244.439 C -57.084 244.441 -57.905 244.513 -58.716 244.551 C -58.962 255.355 -48.567 265.497 -36.333 266.467 C -28.927 267.054 -22.174 265.402 -16.212 260.706 C -11.939 257.34 -7.742 257.56 -5.246 260.929 C -2.778 264.26 -3.965 268.329 -8.325 271.48 C -24.509 283.175 -47.259 282.11 -61.361 268.996 C -75.388 255.952 -77.459 233.608 -66.093 215.514 M -56.327 224.881 C -57.261 227.275 -58.195 229.669 -59.221 232.297 C -43.179 232.297 -27.815 232.297 -12.236 232.297 C -13.212 225.333 -16.126 220.001 -21.858 216.387 C -33.262 209.195 -47.92 212.566 -56.327 224.881 Z" style="stroke-width: 1;" transform="matrix(1, 0, 0, 1, 2.2737367544323206e-13, 2.2737367544323206e-13)"/>
  <path fill="#30554F" opacity="1.000000" stroke="none" d="M -95.107 274.455 C -96.156 278.803 -99.41 279.796 -103.13 279.105 C -106.93 278.399 -108.48 275.576 -108.45 271.743 C -108.39 259.748 -108.22 247.75 -108.43 235.758 C -108.66 221.991 -116.49 213.405 -128.59 213.152 C -142.08 212.87 -150.5 220.907 -150.72 234.607 C -150.92 246.6 -150.78 258.597 -150.85 270.593 C -150.89 276.489 -153.29 279.361 -157.99 279.366 C -162.47 279.371 -164.78 276.273 -164.78 270.266 C -164.79 238.945 -164.8 207.624 -164.81 176.302 C -164.81 174.974 -164.94 173.594 -164.63 172.326 C -163.69 168.376 -161.1 166.292 -157.02 166.702 C -153.22 167.084 -150.89 169.296 -150.85 173.264 C -150.77 181.927 -150.81 190.59 -150.8 199.254 C -150.8 202.228 -150.8 205.201 -150.8 209.192 C -137.84 197.704 -124.24 196.786 -110.18 204.148 C -99.75 209.602 -95.797 219.351 -95.192 231.27 C -95.701 245.727 -95.814 259.477 -95.879 273.227 C -95.881 273.635 -95.376 274.046 -95.107 274.455 Z" style="stroke-width: 1;" transform="matrix(1, 0, 0, 1, 2.2737367544323206e-13, 2.2737367544323206e-13)"/>
  <path opacity="1.000000" stroke="none" d="M 163.143 216.676 C 155.541 223.394 148.208 229.881 140.659 236.559 C 149.905 246.622 158.877 256.422 167.893 266.18 C 172.014 270.641 172.52 274.359 169.281 277.433 C 165.918 280.625 161.755 279.921 157.671 275.483 C 148.445 265.458 139.213 255.438 130.022 245.457 C 125.725 248.069 123.611 251.216 124.039 256.224 C 124.492 261.515 124.137 266.875 124.138 272.205 C 124.139 276.658 121.785 279.044 117.48 279.343 C 113.336 279.631 110.3 276.726 110.289 272.158 C 110.216 239.51 110.22 206.863 110.291 174.215 C 110.301 169.357 113.371 166.418 117.647 166.584 C 121.763 166.742 124.12 169.469 124.132 174.401 C 124.174 191.724 124.15 209.047 124.15 226.37 C 124.15 228.329 124.15 230.288 124.15 233.228 C 125.927 231.914 126.963 231.281 127.842 230.476 C 137.669 221.479 147.488 212.472 157.276 203.432 C 161.886 199.174 165.873 198.632 168.998 201.959 C 172.157 205.323 171.37 209.401 166.779 213.463 C 165.656 214.457 164.534 215.451 163.143 216.676 Z" style="stroke-width: 1; fill: rgb(48, 84, 79);" transform="matrix(1, 0, 0, 1, 2.2737367544323206e-13, 2.2737367544323206e-13)"/>
  <path fill="#315651" opacity="1.000000" stroke="none" d="M -255.23 231.458 C -248.77 199.192 -213.78 192.146 -193.56 207.149 C -191.97 208.332 -190.44 209.664 -189.09 211.117 C -186.26 214.163 -186.18 217.509 -189.07 220.452 C -191.97 223.408 -195.37 223.391 -198.37 220.506 C -203.55 215.513 -209.63 213.017 -216.83 213.082 C -227.54 213.178 -236.52 219.176 -240.16 228.771 C -244.52 240.289 -241.52 253.175 -232.71 260.76 C -225.13 267.283 -213.32 268.441 -204.16 263.443 C -202.13 262.335 -200.26 260.9 -198.39 259.522 C -194.89 256.941 -191.58 257.006 -188.67 260.328 C -186.09 263.265 -186.56 267.02 -190.07 269.952 C -202.28 280.155 -216.21 282.013 -230.87 276.984 C -249.02 270.756 -258.7 252.319 -255.23 231.458 Z" style="stroke-width: 1;" transform="matrix(1, 0, 0, 1, 2.2737367544323206e-13, 2.2737367544323206e-13)"/>
  <path fill="#30544F" opacity="1.000000" stroke="none" d="M 61.496 266.412 C 66.714 264.225 71.715 262.447 76.224 259.824 C 80.605 257.274 84.197 257.148 86.75 260.628 C 89.064 263.781 88.343 267.635 84.467 270.578 C 70.901 280.878 56.072 282.671 40.819 275.333 C 25.774 268.095 19.294 255.067 19.49 238.746 C 19.676 223.171 26.349 210.802 40.449 203.869 C 54.635 196.893 68.838 197.954 82 207.32 C 83.08 208.089 84.095 208.969 85.051 209.889 C 88.827 213.523 89.321 217.248 86.486 220.33 C 83.656 223.405 79.952 223.212 75.999 219.752 C 67.815 212.588 58.581 211.034 48.596 215.093 C 36.891 219.85 30.979 232.77 33.999 246.26 C 36.878 259.121 46.974 266.653 61.496 266.412 Z" style="stroke-width: 1;" transform="matrix(1, 0, 0, 1, 2.2737367544323206e-13, 2.2737367544323206e-13)"/>
  <path opacity="1.000000" stroke="none" d="M 340.086 202.087 C 342.944 204.587 344.179 207.696 342.073 210.27 C 340.444 212.261 337.38 213.646 334.745 214.106 C 331.08 214.744 327.219 214.266 322.865 214.266 C 322.865 223.564 322.866 232.171 322.865 240.778 C 322.865 244.939 322.849 249.1 322.865 253.26 C 322.898 261.694 326.561 265.392 334.999 265.535 C 340.999 265.636 343.593 267.99 343.12 272.899 C 342.712 277.135 340.024 278.898 336.127 279.328 C 320.323 281.069 309.211 271.465 308.908 255.505 C 308.659 242.363 308.749 229.214 308.673 216.068 C 308.672 215.76 308.478 215.453 308.224 214.707 C 303.33 213.575 295.189 216.005 295.263 207.379 C 295.334 199.047 303.16 201.292 308.832 200.111 C 308.832 195.041 308.791 190.094 308.843 185.148 C 308.897 180.033 311.73 176.72 315.958 176.695 C 320.216 176.669 322.851 179.906 322.861 185.195 C 322.87 190.004 322.863 194.813 322.863 199.794 C 328.77 200.51 334.267 201.177 340.086 202.087 Z" style="stroke-width: 1; fill: rgb(48, 84, 79);" transform="matrix(1, 0, 0, 1, 2.2737367544323206e-13, 2.2737367544323206e-13)"/>
  <path fill="#91BED3" opacity="1.000000" stroke="none" d="M 188.862 -157.84 C 180.262 -140.35 160.003 -137.16 147.563 -151.28 C 140.839 -158.91 140.356 -168.06 144.391 -177.03 C 148.114 -185.31 154.698 -189.86 164.197 -190.78 C 182.412 -192.55 195.324 -173.88 188.862 -157.84 Z" style="stroke-width: 1;" transform="matrix(1, 0, 0, 1, 2.2737367544323206e-13, 2.2737367544323206e-13)"/>
  <path opacity="1.000000" stroke="none" d="M 276.541 203.203 C 277.067 205.662 277.67 207.78 277.678 209.899 C 277.747 229.88 277.725 249.86 277.707 269.841 C 277.701 276.055 275.305 279.261 270.667 279.393 C 265.935 279.527 263.145 275.981 263.139 269.752 C 263.117 249.438 262.971 229.123 263.265 208.814 C 263.305 206.111 264.931 202.521 267.028 200.976 C 269.993 198.79 273.726 199.716 276.541 203.203 Z" style="stroke-width: 1; fill: rgb(48, 84, 79);" transform="matrix(1, 0, 0, 1, 2.2737367544323206e-13, 2.2737367544323206e-13)"/>
  <path opacity="1.000000" stroke="none" d="M 217.919 227.526 C 222.579 227.522 226.745 227.395 230.9 227.547 C 235.805 227.726 237.999 230.02 238.015 234.599 C 238.031 239.323 236.024 241.386 230.952 241.534 C 220.049 241.851 209.144 242.132 198.238 242.301 C 194.091 242.366 190.941 239.119 190.892 235.123 C 190.841 230.926 193.8 227.726 198.447 227.573 C 204.765 227.365 211.095 227.524 217.919 227.526 Z" style="stroke-width: 1; fill: rgb(145, 190, 211);" transform="matrix(1, 0, 0, 1, 2.2737367544323206e-13, 2.2737367544323206e-13)"/>
  <path opacity="1.000000" stroke="none" d="M 278.646 182.632 C 275.953 186.982 272.647 189.407 267.704 187.785 C 263.815 186.51 261.866 183.684 261.833 179.537 C 261.788 173.965 265.242 170.311 270.605 170.337 C 275.69 170.361 278.963 173.806 279.061 179.3 C 279.079 180.285 278.889 181.272 278.646 182.632 Z" style="stroke-width: 1; fill: rgb(48, 84, 79);" transform="matrix(1, 0, 0, 1, 2.2737367544323206e-13, 2.2737367544323206e-13)"/>
  <path fill="#143C36" opacity="1.000000" stroke="none" d="M -94.958 274.008 C -95.376 274.046 -95.881 273.635 -95.879 273.227 C -95.814 259.477 -95.701 245.727 -95.276 231.694 C -94.908 245.461 -94.858 259.511 -94.958 274.008 Z" style="stroke-width: 1;" transform="matrix(1, 0, 0, 1, 2.2737367544323206e-13, 2.2737367544323206e-13)"/>
</svg>